# xmcd CD database file
#
# Track frame offsets:
#	150
#	27991
#	52997
#	97811
#	123568
#	168119
#	213639
#
# Disc length: 3188 seconds
#
# Revision: 0
# Processed by: cddbd v1.5.2PL0 Copyright (c) Steve Scherf et al.
# Submitted via: CDex 1.79
#
DISCID=550c7207
DTITLE=Straymonk - Plays Mingus
DYEAR=2012
DGENRE=Jazz
TTITLE0=Better Git It In Your Soul
TTITLE1=Reincarnation Of A Lovebird
TTITLE2=Fables Of Faubus
TTITLE3=	Boogie Stop Shuffle
TTITLE4=	Duke Ellington's Sound Of Love
TTITLE5=Peggy's Blue Skylight
TTITLE6=Tijuana Gift Shop
EXTD=YEAR: 2012
EXTT0=
EXTT1=
EXTT2=
EXTT3=
EXTT4=
EXTT5=
EXTT6=
PLAYORDER=
